<svg width="104" height="104" viewBox="0 0 104 104" fill="none" xmlns="http://www.w3.org/2000/svg">
<g filter="url(#filter0_d)">
<path d="M52 88C75.196 88 94 69.196 94 46C94 22.804 75.196 4 52 4C28.804 4 10 22.804 10 46C10 69.196 28.804 88 52 88Z" fill="white"/>
</g>
<path fill-rule="evenodd" clip-rule="evenodd" d="M74.5051 33.7984L47.3611 60.7552C45.9691 62.1376 43.7651 62.1376 42.3731 60.7552L29.4971 47.968C28.1051 46.5856 28.1051 44.3968 29.4971 43.0144C30.8891 41.632 33.0931 41.632 34.4851 43.0144L44.8671 53.3248L69.5171 28.8448C70.9091 27.4624 73.1131 27.4624 74.5051 28.8448C75.8971 30.2272 75.8971 32.416 74.5051 33.7984Z" fill="#6FCF97"/>
<defs>
<filter id="filter0_d" x="0" y="0" width="104" height="104" filterUnits="userSpaceOnUse" color-interpolation-filters="sRGB">
<feFlood flood-opacity="0" result="BackgroundImageFix"/>
<feColorMatrix in="SourceAlpha" type="matrix" values="0 0 0 0 0 0 0 0 0 0 0 0 0 0 0 0 0 0 127 0"/>
<feOffset dy="6"/>
<feGaussianBlur stdDeviation="5"/>
<feColorMatrix type="matrix" values="0 0 0 0 0.129412 0 0 0 0 0.117647 0 0 0 0 0.262745 0 0 0 0.08 0"/>
<feBlend mode="normal" in2="BackgroundImageFix" result="effect1_dropShadow"/>
<feBlend mode="normal" in="SourceGraphic" in2="effect1_dropShadow" result="shape"/>
</filter>
</defs>
</svg>
